<svg width="140" height="140" viewBox="0 0 140 140" fill="none" xmlns="http://www.w3.org/2000/svg">
<mask id="mask0_4396_148" style="mask-type:alpha" maskUnits="userSpaceOnUse" x="0" y="0" width="140" height="140">
<rect width="140" height="140" fill="#D9D9D9"/>
</mask>
<g mask="url(#mask0_4396_148)">
<path d="M87.5012 122.499H122.501V117.687C120.071 115.451 117.348 113.749 114.335 112.583C111.321 111.416 108.21 110.833 105.001 110.833C101.793 110.833 98.6818 111.416 95.6679 112.583C92.654 113.749 89.9318 115.451 87.5012 117.687V122.499ZM105.001 104.999C107.432 104.999 109.498 104.149 111.199 102.447C112.901 100.746 113.751 98.6799 113.751 96.2494C113.751 93.8188 112.901 91.7528 111.199 90.0514C109.498 88.35 107.432 87.4994 105.001 87.4994C102.571 87.4994 100.505 88.35 98.8033 90.0514C97.1019 91.7528 96.2512 93.8188 96.2512 96.2494C96.2512 98.6799 97.1019 100.746 98.8033 102.447C100.505 104.149 102.571 104.999 105.001 104.999ZM70.2929 49.5827C64.654 49.5827 59.8415 51.5757 55.8554 55.5619C51.8693 59.548 49.8762 64.3605 49.8762 69.9994C49.8762 74.666 51.1887 78.7494 53.8137 82.2494C56.4387 85.7494 59.8901 88.1799 64.1679 89.541C64.1679 87.3049 64.1922 85.166 64.2408 83.1244C64.2894 81.0827 64.7026 79.2355 65.4804 77.5827C64.1193 76.8049 63.1228 75.7355 62.4908 74.3744C61.8589 73.0132 61.5429 71.5549 61.5429 69.9994C61.5429 67.5688 62.3936 65.5028 64.095 63.8014C65.7964 62.1 67.8623 61.2494 70.2929 61.2494C71.7512 61.2494 73.1366 61.6139 74.4491 62.3431C75.7616 63.0723 76.8554 64.0688 77.7304 65.3327C78.7998 64.8466 79.9179 64.5063 81.0846 64.3119C82.2512 64.1174 83.4179 64.0202 84.5846 64.0202H89.8346C88.5707 59.8396 86.1644 56.3882 82.6158 53.666C79.0672 50.9438 74.9596 49.5827 70.2929 49.5827ZM53.9596 128.333L51.6262 109.666C50.3623 109.18 49.1714 108.597 48.0533 107.916C46.9353 107.235 45.8415 106.506 44.7721 105.729L27.4179 113.02L11.3762 85.3119L26.3971 73.9369C26.2998 73.2563 26.2512 72.6 26.2512 71.9681V68.0306C26.2512 67.3987 26.2998 66.7424 26.3971 66.0618L11.3762 54.6869L27.4179 26.9785L44.7721 34.2702C45.8415 33.4924 46.9596 32.7632 48.1262 32.0827C49.2929 31.4021 50.4596 30.8188 51.6262 30.3327L53.9596 11.666H86.0429L88.3762 30.3327C89.6401 30.8188 90.8311 31.4021 91.9491 32.0827C93.0672 32.7632 94.161 33.4924 95.2304 34.2702L112.585 26.9785L128.626 54.6869L116.23 64.166H101.501C101.404 63.6799 101.307 63.1695 101.21 62.6348C101.112 62.1 100.967 61.5896 100.772 61.1035L113.314 51.6243L107.626 41.7077L93.1887 47.8327C91.0498 45.5966 88.6922 43.725 86.1158 42.2181C83.5394 40.7112 80.7443 39.5688 77.7304 38.791L75.8346 23.3327H64.3137L62.2721 38.791C59.2582 39.5688 56.463 40.7112 53.8866 42.2181C51.3103 43.725 48.9526 45.548 46.8137 47.6869L32.3762 41.7077L26.6887 51.6243L39.2304 60.9577C38.7443 62.416 38.404 63.8743 38.2096 65.3327C38.0151 66.791 37.9179 68.3466 37.9179 69.9994C37.9179 71.5549 38.0151 73.0619 38.2096 74.5202C38.404 75.9785 38.7443 77.4369 39.2304 78.8952L26.6887 88.3744L32.3762 98.291L46.8137 92.166C49.1471 94.5966 51.7721 96.6382 54.6887 98.291C57.6054 99.9438 60.7651 101.013 64.1679 101.499V128.333H53.9596ZM84.5846 134.166C82.154 134.166 80.088 133.315 78.3866 131.614C76.6853 129.913 75.8346 127.847 75.8346 125.416V84.5827C75.8346 82.1521 76.6853 80.0862 78.3866 78.3848C80.088 76.6834 82.154 75.8327 84.5846 75.8327H125.418C127.848 75.8327 129.914 76.6834 131.616 78.3848C133.317 80.0862 134.168 82.1521 134.168 84.5827V125.416C134.168 127.847 133.317 129.913 131.616 131.614C129.914 133.315 127.848 134.166 125.418 134.166H84.5846Z" fill="black"/>
</g>
</svg>
