<svg width="71" height="68" viewBox="0 0 71 68" fill="none" xmlns="http://www.w3.org/2000/svg">
<path d="M30.3433 4.45508C31.8402 -0.151049 38.3561 -0.151051 39.853 4.45508L44.0259 17.2959C44.963 20.1801 47.6505 22.1328 50.6831 22.1328H64.1851C69.0285 22.133 71.042 28.3307 67.1235 31.1777L56.2007 39.1143C53.7473 40.8967 52.7207 44.0563 53.6577 46.9404L57.8296 59.7812C59.3263 64.3876 54.0548 68.2185 50.1362 65.3721L39.2124 57.4355C36.7591 55.6532 33.4372 55.6532 30.9839 57.4355L20.0601 65.3721C16.1415 68.2185 10.87 64.3876 12.3667 59.7812L16.5386 46.9404C17.4756 44.0563 16.449 40.8967 13.9956 39.1143L3.07275 31.1777C-0.845693 28.3308 1.16776 22.133 6.01123 22.1328H19.5132C22.5458 22.1328 25.2333 20.1801 26.1704 17.2959L30.3433 4.45508Z" fill="#E9DA00" stroke="black" stroke-width="2"/>
</svg>
