<svg width="57" height="57" viewBox="0 0 57 57" fill="none" xmlns="http://www.w3.org/2000/svg">
<mask id="mask0_4570_15" style="mask-type:alpha" maskUnits="userSpaceOnUse" x="0" y="0" width="57" height="57">
<rect width="57" height="57" fill="#D9D9D9"/>
</mask>
<g mask="url(#mask0_4570_15)">
<path d="M11.875 49.875C10.5687 49.875 9.45052 49.4099 8.52031 48.4797C7.5901 47.5495 7.125 46.4313 7.125 45.125V11.875C7.125 10.5688 7.5901 9.45052 8.52031 8.52031C9.45052 7.5901 10.5687 7.125 11.875 7.125H21.85C22.3646 5.7 23.2255 4.55208 24.4328 3.68125C25.6401 2.81042 26.9958 2.375 28.5 2.375C30.0042 2.375 31.3599 2.81042 32.5672 3.68125C33.7745 4.55208 34.6354 5.7 35.15 7.125H45.125C46.4313 7.125 47.5495 7.5901 48.4797 8.52031C49.4099 9.45052 49.875 10.5688 49.875 11.875V45.125C49.875 46.4313 49.4099 47.5495 48.4797 48.4797C47.5495 49.4099 46.4313 49.875 45.125 49.875H11.875ZM11.875 45.125H45.125V11.875H11.875V45.125ZM16.625 40.375H33.25V35.625H16.625V40.375ZM16.625 30.875H40.375V26.125H16.625V30.875ZM16.625 21.375H40.375V16.625H16.625V21.375ZM28.5 10.0938C29.0146 10.0938 29.4401 9.92552 29.7766 9.58906C30.113 9.2526 30.2812 8.82708 30.2812 8.3125C30.2812 7.79792 30.113 7.3724 29.7766 7.03594C29.4401 6.69948 29.0146 6.53125 28.5 6.53125C27.9854 6.53125 27.5599 6.69948 27.2234 7.03594C26.887 7.3724 26.7188 7.79792 26.7188 8.3125C26.7188 8.82708 26.887 9.2526 27.2234 9.58906C27.5599 9.92552 27.9854 10.0938 28.5 10.0938Z" fill="#FDFDFF"/>
</g>
</svg>
