<svg width="61" height="61" viewBox="0 0 61 61" fill="none" xmlns="http://www.w3.org/2000/svg">
<path d="M7.74512 59.0794C5.97321 60.8513 3.10036 60.8513 1.32845 59.0794C-0.443463 57.3075 -0.443463 54.4347 1.32845 52.6628L20.2512 33.74C22.2039 31.7873 22.2039 28.6215 20.2512 26.6689L1.32845 7.7461C-0.443459 5.97418 -0.443463 3.10134 1.32845 1.32943C3.10036 -0.442487 5.9732 -0.442487 7.74512 1.32943L26.6679 20.2522C28.6205 22.2048 31.7864 22.2048 33.739 20.2522L52.6618 1.32943C54.4337 -0.442482 57.3065 -0.442486 59.0784 1.32943C60.8504 3.10134 60.8504 5.97418 59.0784 7.74609L40.1557 26.6689C38.203 28.6215 38.203 31.7873 40.1557 33.74L59.0784 52.6628C60.8504 54.4347 60.8504 57.3075 59.0784 59.0794C57.3065 60.8513 54.4337 60.8513 52.6618 59.0794L33.739 40.1566C31.7864 38.204 28.6205 38.204 26.6679 40.1566L7.74512 59.0794Z" fill="white"/>
</svg>
