<svg width="47" height="53" viewBox="0 0 47 53" fill="none" xmlns="http://www.w3.org/2000/svg">
<path d="M8.75 52.5C7.14583 52.5 5.77257 51.9288 4.63021 50.7865C3.48785 49.6441 2.91667 48.2708 2.91667 46.6667V10.2083C2.91667 9.40292 2.26375 8.75 1.45833 8.75C0.652918 8.75 0 8.09708 0 7.29167V5.83333C0 4.2225 1.30584 2.91667 2.91667 2.91667H13.125C13.9304 2.91667 14.5833 2.26375 14.5833 1.45833C14.5833 0.652918 15.2363 0 16.0417 0H30.625C31.4304 0 32.0833 0.652918 32.0833 1.45833C32.0833 2.26375 32.7363 2.91667 33.5417 2.91667H43.75C45.3608 2.91667 46.6667 4.2225 46.6667 5.83333V7.29167C46.6667 8.09708 46.0137 8.75 45.2083 8.75C44.4029 8.75 43.75 9.40292 43.75 10.2083V46.6667C43.75 48.2708 43.1788 49.6441 42.0365 50.7865C40.8941 51.9288 39.5208 52.5 37.9167 52.5H8.75ZM37.9167 12.75C37.9167 10.5409 36.1258 8.75 33.9167 8.75H12.75C10.5409 8.75 8.75 10.5409 8.75 12.75V42.6667C8.75 44.8758 10.5409 46.6667 12.75 46.6667H33.9167C36.1258 46.6667 37.9167 44.8758 37.9167 42.6667V12.75ZM14.5833 37.9167C14.5833 39.5275 15.8892 40.8333 17.5 40.8333C19.1108 40.8333 20.4167 39.5275 20.4167 37.9167V17.5C20.4167 15.8892 19.1108 14.5833 17.5 14.5833C15.8892 14.5833 14.5833 15.8892 14.5833 17.5V37.9167ZM26.25 37.9167C26.25 39.5275 27.5558 40.8333 29.1667 40.8333C30.7775 40.8333 32.0833 39.5275 32.0833 37.9167V17.5C32.0833 15.8892 30.7775 14.5833 29.1667 14.5833C27.5558 14.5833 26.25 15.8892 26.25 17.5V37.9167Z" fill="#1C1B1F"/>
</svg>
