<svg width="157" height="134" viewBox="0 0 157 134" fill="none" xmlns="http://www.w3.org/2000/svg">
<path d="M85.8426 0.052176C76.1564 0.790229 68.3099 2.86307 60.2905 6.80459C48.5287 12.5834 38.7953 21.5971 32.0967 32.9034C22.3319 49.3761 20.1933 69.5077 26.2787 87.8962C27.6153 91.9477 29.8796 96.9413 32.0652 100.616C38.528 111.483 47.8525 120.339 58.9539 126.071C76.8797 135.351 97.9975 136.058 116.568 128.002C124.1 124.72 130.972 120.009 137.041 113.964C148.19 102.83 154.747 88.9798 156.398 72.9781C156.649 70.4499 156.649 63.1008 156.398 60.5726C154.951 46.5338 149.762 34.2382 140.815 23.5914C139.022 21.44 134.667 17.153 132.418 15.3001C122.339 7.00873 110.687 2.03079 97.5573 0.413351C95.0728 0.114989 87.9654 -0.104857 85.8426 0.052176ZM94.3338 12.6776C105.074 13.6041 115.373 17.7341 123.896 24.5493C126.128 26.3237 130.295 30.4851 132.057 32.6993C138.504 40.7864 142.34 49.8158 143.74 60.1957C144.133 63.1322 144.133 70.3714 143.74 73.2922C142.309 83.8448 138.535 92.7485 132.041 100.851C130.264 103.081 126.097 107.243 123.896 109.001C111.583 118.785 96.1421 122.852 80.8894 120.308C66.9576 117.984 54.6769 110.493 46.1228 99.0927C40.2105 91.2253 36.5152 81.5364 35.6032 71.5648C35.3988 69.2094 35.3988 64.357 35.619 61.9387C37.1442 44.7123 46.9562 29.1503 61.9101 20.1838C66.4859 17.4357 71.3447 15.4257 76.581 14.1066C78.8295 13.5413 82.8078 12.866 84.962 12.6933C87.2106 12.5049 92.1795 12.5049 94.3338 12.6776Z" fill="black"/>
<path d="M85.9211 13.7144C85.6223 13.7458 84.6631 13.8557 83.7983 13.9342C65.0548 15.8972 48.2612 28.3969 40.7292 46.0317C35.6817 57.8249 35.1628 71.6123 39.3297 83.8138C41.2953 89.5926 44.393 95.23 48.2612 100.067C50.0066 102.234 54.1893 106.426 56.3592 108.17C63.0893 113.571 71.203 117.34 79.6313 118.973C83.987 119.821 89.7106 120.151 93.9562 119.79C105.026 118.848 115.231 114.702 123.754 107.683C124.524 107.055 126.191 105.5 127.449 104.244C135.862 95.811 141.019 85.337 142.607 73.3711C142.953 70.7958 143.079 65.5352 142.875 62.897C141.664 47.9789 134.604 34.5683 123.078 25.3191C115.42 19.1791 106.268 15.3004 96.4092 13.9971C94.6009 13.7615 87.2576 13.5574 85.9211 13.7144Z" fill="black"/>
<path d="M1.41839 13.6513C1.37121 14.2794 1.24542 16.2109 1.1668 17.9383C1.07245 19.6656 0.868035 22.9476 0.695066 25.2403C0.223335 31.82 0.0346428 35.6202 0.00319401 38.7451C-0.0125304 41.4147 0.0189184 41.7287 0.34913 42.6709C1.2297 45.0892 2.66061 46.581 4.73623 47.2249L5.64824 47.5075L5.60107 48.6539C5.52245 50.9308 4.75195 67.9061 3.52545 94.0991C2.51909 115.911 2.50337 116.429 2.72351 117.214C3.16379 118.895 4.45319 119.774 6.67033 119.9C9.39065 120.041 11.1046 119.004 11.6078 116.916C11.655 116.68 11.6078 112.864 11.4663 108.436C11.3405 104.008 11.1675 97.8993 11.0732 94.8843C10.9788 91.8535 10.8373 87.0169 10.7587 84.1275C10.6643 81.2381 10.4599 73.8419 10.2869 67.7176C10.114 61.5776 9.90955 54.5583 9.83093 52.0929C9.75231 49.6275 9.72086 47.5703 9.76803 47.4918C9.79948 47.429 9.95672 47.3819 10.0982 47.3819C10.57 47.3819 12.2839 46.4868 12.9286 45.8901C14.1866 44.7595 15.0042 43.0635 15.303 40.9593C15.476 39.6245 15.1458 32.0398 14.6111 25.0833C14.3753 22.0368 13.9035 14.1224 13.9035 13.1017C13.9035 12.5364 13.8878 12.5207 13.3532 12.5207H12.8028V21.7699V31.0348L12.4569 31.2703C11.9694 31.6158 11.3405 31.5844 10.9788 31.1918C10.6486 30.8307 10.6171 30.0455 10.3656 18.0482L10.2398 12.5207H9.57934H8.91891L8.82457 16.7919C8.76167 19.1474 8.66732 23.2931 8.60443 26.0098C8.51008 30.5009 8.47863 30.972 8.21132 31.2389C7.86538 31.5844 7.17351 31.6001 6.70178 31.2703L6.35584 31.0348V21.7699V12.5207H5.67969H4.98782L4.89347 16.0853C4.83058 18.0325 4.7834 21.1574 4.7834 23.0261C4.7834 28.4281 4.62616 30.8935 4.28022 31.2389C3.85567 31.6629 3.14807 31.6001 2.75496 31.1133C2.42475 30.705 2.42475 30.5637 2.42475 21.6128V12.5207H1.96874C1.51273 12.5207 1.51273 12.5207 1.41839 13.6513Z" fill="black"/>
</svg>
