<svg width="117" height="117" viewBox="0 0 117 117" fill="none" xmlns="http://www.w3.org/2000/svg">
<mask id="mask0_4388_39" style="mask-type:alpha" maskUnits="userSpaceOnUse" x="0" y="0" width="117" height="117">
<rect width="117" height="117" fill="#D9D9D9"/>
</mask>
<g mask="url(#mask0_4388_39)">
<path d="M4.875 63.375V53.625H14.7469C15.8844 43.3063 20.0687 34.5313 27.3 27.3C34.5312 20.0688 43.3063 15.8844 53.625 14.7469V9.75H63.375V14.7469C73.6937 15.8844 82.4687 20.0688 89.7 27.3C96.9312 34.5313 101.116 43.3063 102.253 53.625H112.125V63.375H4.875ZM24.7406 53.625H92.2594C91.1219 45.2563 87.3641 38.2891 80.9859 32.7234C74.6078 27.1578 67.1125 24.375 58.5 24.375C49.8875 24.375 42.3922 27.1578 36.0141 32.7234C29.6359 38.2891 25.8781 45.2563 24.7406 53.625ZM70.0781 63.375H39V92.625H66.0563C67.7625 92.625 69.4078 92.3406 70.9922 91.7719C72.5766 91.2031 74.0187 90.35 75.3187 89.2125L95.55 72.5156C94.9 71.8656 94.1687 71.3781 93.3562 71.0531C92.5437 70.7281 91.6906 70.4844 90.7969 70.3219C89.4156 70.0781 88.075 70.1187 86.775 70.4437C85.475 70.7687 84.2563 71.3781 83.1188 72.2719L69.9563 82.875H48.75V73.125H66.5438L71.9062 68.7375C72.3125 68.4938 72.6172 68.1688 72.8203 67.7625C73.0234 67.3563 73.125 66.9094 73.125 66.4219C73.125 65.6094 72.8203 64.8984 72.2109 64.2891C71.6016 63.6797 70.8906 63.375 70.0781 63.375ZM29.25 63.375H19.5V97.5H29.25V63.375ZM29.25 107.25H19.5C16.8187 107.25 14.5234 106.295 12.6141 104.386C10.7047 102.477 9.75 100.181 9.75 97.5V63.375C9.75 60.6937 10.7047 58.3984 12.6141 56.4891C14.5234 54.5797 16.8187 53.625 19.5 53.625H70.0781C76.9844 53.625 83.6469 54.8031 90.0656 57.1594C96.4844 59.5156 101.644 63.4969 105.544 69.1031L108.834 74.1L81.6562 96.7688C79.4625 98.6375 77.025 100.039 74.3438 100.973C71.6625 101.908 68.9 102.375 66.0563 102.375H37.6594C36.7656 103.838 35.5875 105.016 34.125 105.909C32.6625 106.803 31.0375 107.25 29.25 107.25Z" fill="#1C1B1F"/>
</g>
</svg>
