<svg width="57" height="57" viewBox="0 0 57 57" fill="none" xmlns="http://www.w3.org/2000/svg">
<mask id="mask0_4570_18" style="mask-type:alpha" maskUnits="userSpaceOnUse" x="0" y="0" width="57" height="57">
<rect width="57" height="57" fill="#D9D9D9"/>
</mask>
<g mask="url(#mask0_4570_18)">
<path d="M26.125 42.75H30.875V35.625H38V30.875H30.875V23.75H26.125V30.875H19V35.625H26.125V42.75ZM14.25 52.25C12.9437 52.25 11.8255 51.7849 10.8953 50.8547C9.9651 49.9245 9.5 48.8063 9.5 47.5V9.5C9.5 8.19375 9.9651 7.07552 10.8953 6.14531C11.8255 5.2151 12.9437 4.75 14.25 4.75H33.25L47.5 19V47.5C47.5 48.8063 47.0349 49.9245 46.1047 50.8547C45.1745 51.7849 44.0563 52.25 42.75 52.25H14.25ZM30.875 21.375V9.5H14.25V47.5H42.75V21.375H30.875Z" fill="#FDFDFF"/>
</g>
</svg>
