<svg width="71" height="71" viewBox="0 0 71 71" fill="none" xmlns="http://www.w3.org/2000/svg">
<mask id="mask0_4570_24" style="mask-type:alpha" maskUnits="userSpaceOnUse" x="0" y="0" width="71" height="71">
<rect width="71" height="71" fill="#D9D9D9"/>
</mask>
<g mask="url(#mask0_4570_24)">
<path d="M20.7084 65.0827V38.0139C18.1938 37.3237 16.086 35.9431 14.3849 33.8723C12.6839 31.8014 11.8334 29.3855 11.8334 26.6243V5.91602H17.75V26.6243H20.7084V5.91602H26.625V26.6243H29.5834V5.91602H35.5V26.6243C35.5 29.3855 34.6495 31.8014 32.9485 33.8723C31.2474 35.9431 29.1396 37.3237 26.625 38.0139V65.0827H20.7084ZM50.2917 65.0827V41.416H41.4167V20.7077C41.4167 16.6153 42.8589 13.127 45.7433 10.2426C48.6276 7.3582 52.116 5.91602 56.2084 5.91602V65.0827H50.2917Z" fill="#FDFDFF"/>
</g>
</svg>
