<svg width="145" height="145" viewBox="0 0 145 145" fill="none" xmlns="http://www.w3.org/2000/svg">
<path d="M36.2021 48.2695H60.3368" stroke="black" stroke-width="13" stroke-linecap="round" stroke-linejoin="round"/>
<path d="M132.74 63.3532C132.74 62.8862 132.74 60.1388 132.727 59.9418C132.513 56.9204 129.922 54.5137 126.668 54.3156C126.455 54.3027 126.204 54.3027 125.701 54.3027H109.998C99.2326 54.3027 90.5049 62.4065 90.5049 72.4037C90.5049 82.4009 99.2326 90.5047 109.998 90.5047H125.701C126.204 90.5047 126.455 90.5047 126.668 90.492C129.922 90.2935 132.513 87.8873 132.727 84.8656C132.74 84.6683 132.74 81.9212 132.74 81.4542" stroke="black" stroke-width="9" stroke-linecap="round"/>
<path d="M108.606 78.4374C111.938 78.4374 114.64 75.7361 114.64 72.4038C114.64 69.0715 111.938 66.3701 108.606 66.3701C105.274 66.3701 102.572 69.0715 102.572 72.4038C102.572 75.7361 105.274 78.4374 108.606 78.4374Z" fill="black"/>
<path d="M78.4376 24.1348C101.192 24.1348 112.569 24.1348 119.638 31.2036C124.514 36.0799 126.027 43.0062 126.496 54.303M60.3366 120.673H78.4376C101.192 120.673 112.569 120.673 119.638 113.604C124.514 108.728 126.027 101.802 126.496 90.505M54.303 24.1404C35.5123 24.1953 25.5506 24.7893 19.1362 31.2036C12.0674 38.2725 12.0674 49.6496 12.0674 72.404C12.0674 95.1581 12.0674 106.536 19.1362 113.604C23.0773 117.545 28.3576 119.289 36.202 120.061" stroke="black" stroke-width="9" stroke-linecap="round"/>
</svg>
