<svg width="63" height="63" viewBox="0 0 63 63" fill="none" xmlns="http://www.w3.org/2000/svg">
<path d="M31 63C29.3431 63 28 61.6569 28 60V38C28 36.3431 26.6569 35 25 35H3C1.34315 35 0 33.6569 0 32V31C0 29.3431 1.34315 28 3 28H25C26.6569 28 28 26.6569 28 25V3C28 1.34315 29.3431 0 31 0H32C33.6569 0 35 1.34315 35 3V25C35 26.6569 36.3431 28 38 28H60C61.6569 28 63 29.3431 63 31V32C63 33.6569 61.6569 35 60 35H38C36.3431 35 35 36.3431 35 38V60C35 61.6569 33.6569 63 32 63H31Z" fill="#FCFCFC"/>
</svg>
