<svg width="77" height="96" viewBox="0 0 77 96" fill="none" xmlns="http://www.w3.org/2000/svg">
<path d="M0 81.4583V71.875H9.58333V38.3333C9.58333 31.7049 11.5799 25.8151 15.5729 20.6641C19.566 15.513 24.7569 12.1389 31.1458 10.5417V7.1875C31.1458 5.19097 31.8446 3.49392 33.2422 2.09635C34.6398 0.698785 36.3368 0 38.3333 0C40.3299 0 42.0269 0.698785 43.4245 2.09635C44.822 3.49392 45.5208 5.19097 45.5208 7.1875V10.5417C51.9097 12.1389 57.1007 15.513 61.0937 20.6641C65.0868 25.8151 67.0833 31.7049 67.0833 38.3333V71.875H76.6667V81.4583H0ZM38.3333 95.8333C35.6979 95.8333 33.4418 94.895 31.5651 93.0182C29.6884 91.1415 28.75 88.8854 28.75 86.25H47.9167C47.9167 88.8854 46.9783 91.1415 45.1016 93.0182C43.2248 94.895 40.9688 95.8333 38.3333 95.8333ZM19.1667 71.875H57.5V38.3333C57.5 33.0625 55.6233 28.5504 51.8698 24.7969C48.1163 21.0434 43.6042 19.1667 38.3333 19.1667C33.0625 19.1667 28.5503 21.0434 24.7969 24.7969C21.0434 28.5504 19.1667 33.0625 19.1667 38.3333V71.875Z" fill="#1C1B1F"/>
</svg>
