<svg width="53" height="53" viewBox="0 0 53 53" fill="none" xmlns="http://www.w3.org/2000/svg">
<path d="M48.6442 52.7467L30.1828 34.2854C28.7177 35.4575 27.0327 36.3855 25.128 37.0692C23.2232 37.753 21.1964 38.0949 19.0474 38.0949C13.7239 38.0949 9.21847 36.2512 5.53108 32.5638C1.84369 28.8764 0 24.3709 0 19.0474C0 13.7239 1.84369 9.21847 5.53108 5.53108C9.21847 1.84369 13.7239 0 19.0474 0C24.3709 0 28.8764 1.84369 32.5638 5.53108C36.2512 9.21847 38.0949 13.7239 38.0949 19.0474C38.0949 21.1964 37.753 23.2232 37.0692 25.128C36.3855 27.0327 35.4575 28.7177 34.2854 30.1828L52.7467 48.6442L48.6442 52.7467ZM19.0474 32.2341C22.7104 32.2341 25.8239 30.9521 28.388 28.388C30.9521 25.8239 32.2341 22.7104 32.2341 19.0474C32.2341 15.3845 30.9521 12.2709 28.388 9.70686C25.8239 7.14279 22.7104 5.86075 19.0474 5.86075C15.3845 5.86075 12.2709 7.14279 9.70686 9.70686C7.14279 12.2709 5.86075 15.3845 5.86075 19.0474C5.86075 22.7104 7.14279 25.8239 9.70686 28.388C12.2709 30.9521 15.3845 32.2341 19.0474 32.2341Z" fill="#768880"/>
</svg>
